<svg width="640" height="160" viewBox="0 0 640 160" fill="currentColor" xmlns="http://www.w3.org/2000/svg">
  <path fill-rule="evenodd" clip-rule="evenodd"
    d="M4.3761 4.38354H205.128V41.0959H242.325V155.616H41.5727V121.096H4.3761V4.38354ZM18.0513 107.397H191.453V87.1233H41.5727V41.0959H191.453V18.0822H18.0513V107.397ZM205.128 121.096H55.2479V141.918H228.65V54.7945H55.2479V73.4246H205.128V121.096Z" />
  <path
    d="M301.245 121.472C301.245 119.952 301.525 118.467 302.085 117.018C302.646 115.545 303.462 114.213 304.536 113.02C305.61 111.828 306.917 110.881 308.457 110.18C309.997 109.455 311.748 109.093 313.708 109.093C316.042 109.093 318.061 109.595 319.765 110.601C321.492 111.606 322.775 112.915 323.616 114.528L319.205 117.614C318.831 116.726 318.329 116.036 317.699 115.545C317.093 115.054 316.415 114.715 315.669 114.528C314.945 114.318 314.245 114.213 313.568 114.213C312.472 114.213 311.514 114.435 310.698 114.879C309.881 115.3 309.204 115.872 308.667 116.597C308.13 117.322 307.733 118.129 307.477 119.017C307.22 119.905 307.092 120.794 307.092 121.682C307.092 122.664 307.243 123.611 307.547 124.523C307.85 125.435 308.282 126.241 308.842 126.943C309.426 127.644 310.126 128.205 310.943 128.626C311.759 129.023 312.658 129.222 313.638 129.222C314.338 129.222 315.05 129.105 315.774 128.871C316.497 128.637 317.163 128.275 317.769 127.784C318.399 127.27 318.878 126.603 319.205 125.785L323.896 128.556C323.406 129.772 322.6 130.812 321.48 131.677C320.36 132.542 319.088 133.208 317.664 133.676C316.264 134.12 314.875 134.342 313.498 134.342C311.701 134.342 310.044 133.98 308.527 133.255C307.033 132.507 305.738 131.525 304.641 130.309C303.567 129.07 302.727 127.69 302.12 126.171C301.537 124.628 301.245 123.061 301.245 121.472Z" />
  <path
    d="M362.431 109.233H368.627L377.169 134.132H371.288L369.363 128.556H361.626L359.735 134.132H353.854L362.431 109.233ZM368.417 124.593L365.512 115.019L362.536 124.593H368.417Z" />
  <path
    d="M409.375 134.132V109.233H419.982C421.173 109.233 422.258 109.478 423.238 109.969C424.242 110.437 425.105 111.08 425.829 111.898C426.552 112.693 427.112 113.593 427.509 114.598C427.906 115.604 428.104 116.632 428.104 117.684C428.104 119.111 427.766 120.466 427.089 121.752C426.435 123.038 425.514 124.09 424.323 124.909C423.157 125.704 421.768 126.101 420.157 126.101H415.116V134.132H409.375ZM415.116 121.086H419.807C420.251 121.086 420.659 120.957 421.032 120.7C421.406 120.443 421.709 120.058 421.943 119.543C422.176 119.029 422.293 118.397 422.293 117.649C422.293 116.878 422.153 116.247 421.873 115.756C421.616 115.241 421.278 114.867 420.857 114.633C420.461 114.399 420.041 114.283 419.597 114.283H415.116V121.086Z" />
  <path d="M460.944 134.132V109.233H466.685V134.132H460.944Z" />
  <path d="M520.136 114.283H512.574V134.132H506.833V114.283H499.236V109.233H520.136V114.283Z" />
  <path
    d="M556.674 109.233H562.872L571.411 134.132H565.53L563.605 128.556H555.87L553.978 134.132H548.097L556.674 109.233ZM562.659 124.593L559.754 115.019L556.778 124.593H562.659Z" />
  <path d="M603.618 134.132V109.233H609.357V129.082H621.402V134.132H603.618Z" />
  <path
    d="M326.053 45.8653C326.053 45.8653 325.573 45.5823 324.612 45.0163C323.652 44.4502 322.381 43.8276 320.798 43.1484C319.216 42.4125 317.493 41.7616 315.628 41.1956C313.763 40.6295 311.927 40.3465 310.119 40.3465C308.706 40.3465 307.547 40.5729 306.644 41.0258C305.739 41.4786 305.287 42.2427 305.287 43.3182C305.287 44.337 305.739 45.1578 306.644 45.7804C307.547 46.403 308.819 46.969 310.457 47.4785C312.153 47.9879 314.158 48.6105 316.476 49.3464C320.205 50.4784 323.426 51.7803 326.138 53.2519C328.85 54.7236 330.941 56.6197 332.41 58.9403C333.879 61.2044 334.614 64.2329 334.614 68.0252C334.614 71.6477 333.964 74.7047 332.664 77.1951C331.365 79.629 329.613 81.5819 327.409 83.0532C325.206 84.5249 322.748 85.6005 320.036 86.2795C317.323 86.9025 314.555 87.2137 311.729 87.2137C308.847 87.2137 305.824 86.9304 302.66 86.3644C299.552 85.7419 296.529 84.9211 293.59 83.9025C290.652 82.8268 287.968 81.5819 285.538 80.1666L292.658 65.6482C292.658 65.6482 293.223 65.9874 294.353 66.6668C295.484 67.3463 296.981 68.1101 298.846 68.9594C300.71 69.8082 302.773 70.5726 305.033 71.2515C307.35 71.931 309.666 72.2707 311.983 72.2707C313.791 72.2707 315.035 72.0438 315.713 71.5912C316.447 71.0816 316.815 70.4307 316.815 69.6384C316.815 68.4499 316.193 67.5441 314.95 66.9216C313.707 66.2422 312.068 65.6197 310.034 65.0537C308.056 64.4312 305.852 63.7233 303.422 62.931C299.919 61.7425 297.038 60.4121 294.777 58.9403C292.517 57.4121 290.85 55.629 289.777 53.5916C288.703 51.4973 288.166 48.9785 288.166 46.0351C288.166 41.5635 289.212 37.8277 291.302 34.8278C293.393 31.8278 296.133 29.5637 299.524 28.0355C302.971 26.4506 306.672 25.6581 310.627 25.6581C313.566 25.6581 316.391 26.026 319.103 26.7619C321.872 27.4411 324.443 28.2901 326.816 29.309C329.246 30.3278 331.365 31.2901 333.173 32.1957L326.053 45.8653Z" />
  <path
    d="M379.757 26.1675H398.235L417.391 86.4493H400.608L396.964 74.6476H380.944L377.384 86.4493H360.517L379.757 26.1675ZM394.336 63.6104L388.996 42.3842L383.402 63.6104H394.336Z" />
  <path
    d="M499.013 70.9967C499.013 74.6197 498.024 77.5627 496.046 79.8268C494.125 82.0909 491.525 83.7611 488.248 84.8361C484.971 85.9118 481.354 86.4493 477.399 86.4493H447.818V26.1675H482.739C485.564 26.1675 487.994 26.9316 490.028 28.4599C492.119 29.9316 493.701 31.8561 494.775 34.2334C495.905 36.6107 496.47 39.073 496.47 41.6201C496.47 44.3936 495.735 47.0822 494.266 49.6859C492.854 52.2897 490.706 54.2425 487.824 55.5441C491.271 56.5633 493.984 58.3463 495.961 60.8931C497.995 63.4405 499.013 66.8082 499.013 70.9967ZM482.23 67.6005C482.23 66.5819 482.033 65.7046 481.637 64.9687C481.298 64.1764 480.818 63.5534 480.196 63.1008C479.574 62.6482 478.84 62.4213 477.992 62.4213H464.346V72.5249H477.399C478.303 72.5249 479.123 72.3271 479.857 71.9309C480.592 71.5348 481.157 70.9687 481.552 70.2329C482.004 69.497 482.23 68.6197 482.23 67.6005ZM464.346 40.2616V49.5161H475.619C476.354 49.5161 477.06 49.4029 477.738 49.1765C478.416 48.8935 478.981 48.4124 479.433 47.7332C479.885 47.0539 480.112 46.0917 480.112 44.8464C480.112 43.7144 479.914 42.837 479.518 42.2144C479.179 41.5352 478.699 41.0541 478.077 40.771C477.512 40.4314 476.862 40.2616 476.128 40.2616H464.346Z" />
  <path d="M531.766 86.4493V26.1675H548.294V86.4493H531.766Z" />
  <path
    d="M597.995 26.1675H616.473L635.629 86.4493H618.847L615.199 74.6476H599.182L595.621 86.4493H578.757L597.995 26.1675ZM612.573 63.6104L607.234 42.3842L601.638 63.6104H612.573Z" />
</svg>